# xmcd CD database file
#
# Track frame offsets:
#	150
#	15818
#	36970
#	67593
#	83603
#	96200
#	112875
#	129630
#	154323
#
# Disc length: 2556 seconds
#
# Revision: 15
# Processed by: cddbd v1.5.2PL0 Copyright (c) Steve Scherf et al.
# Submitted via: CDex 1.70beta2
#
DISCID=5d09fa09
DTITLE=Prince and The Revolution - Around The World In A Day
DYEAR=1985
DGENRE=Rock
TTITLE0=Around The World In A Day
TTITLE1=Paisley Park
TTITLE2=Condition Of The Heart
TTITLE3=Raspberry Beret
TTITLE4=Tamborine
TTITLE5=America
TTITLE6=Pop Life
TTITLE7=The Ladder
TTITLE8=Temptation
EXTD=YEAR: 1985
EXTT0=
EXTT1=
EXTT2=
EXTT3=
EXTT4=
EXTT5=
EXTT6=
EXTT7=
EXTT8=
PLAYORDER=
